<?xml version="1.0" encoding="UTF-8" standalone="no"?>
<!DOCTYPE svg PUBLIC "-//W3C//DTD SVG 1.1//EN"
 "http://www.w3.org/Graphics/SVG/1.1/DTD/svg11.dtd">
<!-- Generated by graphviz version 2.40.1 (20161225.0304)
 -->
<!-- Title: dependencies Pages: 1 -->
<svg width="1242pt" height="284pt"
 viewBox="0.00 0.00 1242.00 284.00" xmlns="http://www.w3.org/2000/svg" xmlns:xlink="http://www.w3.org/1999/xlink">
<g id="graph0" class="graph" transform="scale(1 1) rotate(0) translate(4 280)">
<title>dependencies</title>
<polygon fill="#ffffff" stroke="transparent" points="-4,4 -4,-280 1238,-280 1238,4 -4,4"/>
<text text-anchor="start" x="596.0091" y="-42.4" font-family="sans-serif" font-weight="bold" font-size="14.00" fill="#000000">Legend</text>
<polygon fill="#ffffb3" stroke="transparent" points="383,-10 383,-30 403,-30 403,-10 383,-10"/>
<text text-anchor="start" x="406.629" y="-15.4" font-family="sans-serif" font-size="14.00" fill="#000000"> &#160;Declarations</text>
<polygon fill="#8dd3c7" stroke="transparent" points="496,-10 496,-30 516,-30 516,-10 496,-10"/>
<text text-anchor="start" x="519.7251" y="-15.4" font-family="sans-serif" font-size="14.00" fill="#000000"> &#160;Module</text>
<polygon fill="#80b1d3" stroke="transparent" points="582,-10 582,-30 602,-30 602,-10 582,-10"/>
<text text-anchor="start" x="605.7812" y="-15.4" font-family="sans-serif" font-size="14.00" fill="#000000"> &#160;Bootstrap</text>
<polygon fill="#fdb462" stroke="transparent" points="679,-10 679,-30 699,-30 699,-10 679,-10"/>
<text text-anchor="start" x="702.6732" y="-15.4" font-family="sans-serif" font-size="14.00" fill="#000000"> &#160;Providers</text>
<polygon fill="#fb8072" stroke="transparent" points="775,-10 775,-30 795,-30 795,-10 775,-10"/>
<text text-anchor="start" x="798.7258" y="-15.4" font-family="sans-serif" font-size="14.00" fill="#000000"> &#160;Exports</text>
<g id="clust1" class="cluster">
<title>cluster_ButtonModule</title>
<polygon fill="none" stroke="#000000" stroke-dasharray="1,5" points="8,-70 8,-268 122,-268 122,-70 8,-70"/>
</g>
<g id="clust2" class="cluster">
<title>cluster_ButtonModule_declarations</title>
<polygon fill="none" stroke="#000000" points="30,-78 30,-130 100,-130 100,-78 30,-78"/>
</g>
<g id="clust5" class="cluster">
<title>cluster_ButtonModule_exports</title>
<polygon fill="none" stroke="#000000" points="28,-208 28,-260 102,-260 102,-208 28,-208"/>
</g>
<g id="clust8" class="cluster">
<title>cluster_CardModule</title>
<polygon fill="none" stroke="#000000" stroke-dasharray="1,5" points="130,-70 130,-268 232,-268 232,-70 130,-70"/>
</g>
<g id="clust9" class="cluster">
<title>cluster_CardModule_declarations</title>
<polygon fill="none" stroke="#000000" points="146,-78 146,-130 216,-130 216,-78 146,-78"/>
</g>
<g id="clust12" class="cluster">
<title>cluster_CardModule_exports</title>
<polygon fill="none" stroke="#000000" points="146,-208 146,-260 216,-260 216,-208 146,-208"/>
</g>
<g id="clust15" class="cluster">
<title>cluster_CheckboxModule</title>
<polygon fill="none" stroke="#000000" stroke-dasharray="1,5" points="240,-70 240,-268 372,-268 372,-70 240,-70"/>
</g>
<g id="clust16" class="cluster">
<title>cluster_CheckboxModule_declarations</title>
<polygon fill="none" stroke="#000000" points="262,-78 262,-130 350,-130 350,-78 262,-78"/>
</g>
<g id="clust19" class="cluster">
<title>cluster_CheckboxModule_exports</title>
<polygon fill="none" stroke="#000000" points="260,-208 260,-260 352,-260 352,-208 260,-208"/>
</g>
<g id="clust22" class="cluster">
<title>cluster_InputModule</title>
<polygon fill="none" stroke="#000000" stroke-dasharray="1,5" points="380,-70 380,-268 486,-268 486,-70 380,-70"/>
</g>
<g id="clust23" class="cluster">
<title>cluster_InputModule_declarations</title>
<polygon fill="none" stroke="#000000" points="398,-78 398,-130 468,-130 468,-78 398,-78"/>
</g>
<g id="clust26" class="cluster">
<title>cluster_InputModule_exports</title>
<polygon fill="none" stroke="#000000" points="398,-208 398,-260 468,-260 468,-208 398,-208"/>
</g>
<g id="clust29" class="cluster">
<title>cluster_ListModule</title>
<polygon fill="none" stroke="#000000" stroke-dasharray="1,5" points="494,-70 494,-268 664,-268 664,-70 494,-70"/>
</g>
<g id="clust30" class="cluster">
<title>cluster_ListModule_declarations</title>
<polygon fill="none" stroke="#000000" points="502,-78 502,-130 654,-130 654,-78 502,-78"/>
</g>
<g id="clust34" class="cluster">
<title>cluster_ListModule_exports</title>
<polygon fill="none" stroke="#000000" points="502,-208 502,-260 656,-260 656,-208 502,-208"/>
</g>
<g id="clust37" class="cluster">
<title>cluster_SelectModule</title>
<polygon fill="none" stroke="#000000" stroke-dasharray="1,5" points="672,-70 672,-268 856,-268 856,-70 672,-70"/>
</g>
<g id="clust38" class="cluster">
<title>cluster_SelectModule_declarations</title>
<polygon fill="none" stroke="#000000" points="681,-78 681,-130 845,-130 845,-78 681,-78"/>
</g>
<g id="clust42" class="cluster">
<title>cluster_SelectModule_exports</title>
<polygon fill="none" stroke="#000000" points="680,-208 680,-260 848,-260 848,-208 680,-208"/>
</g>
<g id="clust45" class="cluster">
<title>cluster_SidebarModule</title>
<polygon fill="none" stroke="#000000" stroke-dasharray="1,5" points="864,-70 864,-268 982,-268 982,-70 864,-70"/>
</g>
<g id="clust46" class="cluster">
<title>cluster_SidebarModule_declarations</title>
<polygon fill="none" stroke="#000000" points="886,-78 886,-130 960,-130 960,-78 886,-78"/>
</g>
<g id="clust49" class="cluster">
<title>cluster_SidebarModule_exports</title>
<polygon fill="none" stroke="#000000" points="884,-208 884,-260 962,-260 962,-208 884,-208"/>
</g>
<g id="clust52" class="cluster">
<title>cluster_SliderModule</title>
<polygon fill="none" stroke="#000000" stroke-dasharray="1,5" points="990,-70 990,-268 1098,-268 1098,-70 990,-70"/>
</g>
<g id="clust53" class="cluster">
<title>cluster_SliderModule_declarations</title>
<polygon fill="none" stroke="#000000" points="1009,-78 1009,-130 1079,-130 1079,-78 1009,-78"/>
</g>
<g id="clust56" class="cluster">
<title>cluster_SliderModule_exports</title>
<polygon fill="none" stroke="#000000" points="1009,-208 1009,-260 1079,-260 1079,-208 1009,-208"/>
</g>
<g id="clust59" class="cluster">
<title>cluster_ToolbarModule</title>
<polygon fill="none" stroke="#000000" stroke-dasharray="1,5" points="1106,-70 1106,-268 1226,-268 1226,-70 1106,-70"/>
</g>
<g id="clust60" class="cluster">
<title>cluster_ToolbarModule_declarations</title>
<polygon fill="none" stroke="#000000" points="1128,-78 1128,-130 1204,-130 1204,-78 1128,-78"/>
</g>
<g id="clust63" class="cluster">
<title>cluster_ToolbarModule_exports</title>
<polygon fill="none" stroke="#000000" points="1126,-208 1126,-260 1206,-260 1206,-208 1126,-208"/>
</g>
<!-- Button -->
<g id="node1" class="node">
<title>Button</title>
<polygon fill="#ffffb3" stroke="#000000" points="92.1179,-122 37.8821,-122 37.8821,-86 92.1179,-86 92.1179,-122"/>
<text text-anchor="middle" x="65" y="-99.8" font-family="Times,serif" font-size="14.00" fill="#000000">Button</text>
</g>
<!-- ButtonModule -->
<g id="node2" class="node">
<title>ButtonModule</title>
<polygon fill="#8dd3c7" stroke="#000000" points="113.6682,-187 110.6682,-191 89.6682,-191 86.6682,-187 16.3318,-187 16.3318,-151 113.6682,-151 113.6682,-187"/>
<text text-anchor="middle" x="65" y="-164.8" font-family="Times,serif" font-size="14.00" fill="#000000">ButtonModule</text>
</g>
<!-- Button&#45;&gt;ButtonModule -->
<g id="edge1" class="edge">
<title>Button&#45;&gt;ButtonModule</title>
<path fill="none" stroke="#000000" d="M65,-122.1061C65,-122.1061 65,-140.991 65,-140.991"/>
<polygon fill="#000000" stroke="#000000" points="61.5001,-140.9909 65,-150.991 68.5001,-140.991 61.5001,-140.9909"/>
</g>
<!-- Button  -->
<g id="node3" class="node">
<title>Button </title>
<polygon fill="#fb8072" stroke="#000000" points="93.6191,-252 36.3809,-252 36.3809,-216 93.6191,-216 93.6191,-252"/>
<text text-anchor="middle" x="65" y="-229.8" font-family="Times,serif" font-size="14.00" fill="#000000">Button </text>
</g>
<!-- ButtonModule&#45;&gt;Button  -->
<g id="edge2" class="edge">
<title>ButtonModule&#45;&gt;Button </title>
<path fill="none" stroke="#000000" stroke-dasharray="5,2" d="M65,-187.1061C65,-187.1061 65,-205.991 65,-205.991"/>
<polygon fill="#000000" stroke="#000000" points="61.5001,-205.9909 65,-215.991 68.5001,-205.991 61.5001,-205.9909"/>
</g>
<!-- Card -->
<g id="node4" class="node">
<title>Card</title>
<polygon fill="#ffffb3" stroke="#000000" points="208,-122 154,-122 154,-86 208,-86 208,-122"/>
<text text-anchor="middle" x="181" y="-99.8" font-family="Times,serif" font-size="14.00" fill="#000000">Card</text>
</g>
<!-- CardModule -->
<g id="node5" class="node">
<title>CardModule</title>
<polygon fill="#8dd3c7" stroke="#000000" points="224.2619,-187 221.2619,-191 200.2619,-191 197.2619,-187 137.7381,-187 137.7381,-151 224.2619,-151 224.2619,-187"/>
<text text-anchor="middle" x="181" y="-164.8" font-family="Times,serif" font-size="14.00" fill="#000000">CardModule</text>
</g>
<!-- Card&#45;&gt;CardModule -->
<g id="edge3" class="edge">
<title>Card&#45;&gt;CardModule</title>
<path fill="none" stroke="#000000" d="M181,-122.1061C181,-122.1061 181,-140.991 181,-140.991"/>
<polygon fill="#000000" stroke="#000000" points="177.5001,-140.9909 181,-150.991 184.5001,-140.991 177.5001,-140.9909"/>
</g>
<!-- Card  -->
<g id="node6" class="node">
<title>Card </title>
<polygon fill="#fb8072" stroke="#000000" points="208,-252 154,-252 154,-216 208,-216 208,-252"/>
<text text-anchor="middle" x="181" y="-229.8" font-family="Times,serif" font-size="14.00" fill="#000000">Card </text>
</g>
<!-- CardModule&#45;&gt;Card  -->
<g id="edge4" class="edge">
<title>CardModule&#45;&gt;Card </title>
<path fill="none" stroke="#000000" stroke-dasharray="5,2" d="M181,-187.1061C181,-187.1061 181,-205.991 181,-205.991"/>
<polygon fill="#000000" stroke="#000000" points="177.5001,-205.9909 181,-215.991 184.5001,-205.991 177.5001,-205.9909"/>
</g>
<!-- Checkbox -->
<g id="node7" class="node">
<title>Checkbox</title>
<polygon fill="#ffffb3" stroke="#000000" points="342.2662,-122 269.7338,-122 269.7338,-86 342.2662,-86 342.2662,-122"/>
<text text-anchor="middle" x="306" y="-99.8" font-family="Times,serif" font-size="14.00" fill="#000000">Checkbox</text>
</g>
<!-- CheckboxModule -->
<g id="node8" class="node">
<title>CheckboxModule</title>
<polygon fill="#8dd3c7" stroke="#000000" points="364.316,-187 361.316,-191 340.316,-191 337.316,-187 247.684,-187 247.684,-151 364.316,-151 364.316,-187"/>
<text text-anchor="middle" x="306" y="-164.8" font-family="Times,serif" font-size="14.00" fill="#000000">CheckboxModule</text>
</g>
<!-- Checkbox&#45;&gt;CheckboxModule -->
<g id="edge5" class="edge">
<title>Checkbox&#45;&gt;CheckboxModule</title>
<path fill="none" stroke="#000000" d="M306,-122.1061C306,-122.1061 306,-140.991 306,-140.991"/>
<polygon fill="#000000" stroke="#000000" points="302.5001,-140.9909 306,-150.991 309.5001,-140.991 302.5001,-140.9909"/>
</g>
<!-- Checkbox  -->
<g id="node9" class="node">
<title>Checkbox </title>
<polygon fill="#fb8072" stroke="#000000" points="344.2663,-252 267.7337,-252 267.7337,-216 344.2663,-216 344.2663,-252"/>
<text text-anchor="middle" x="306" y="-229.8" font-family="Times,serif" font-size="14.00" fill="#000000">Checkbox </text>
</g>
<!-- CheckboxModule&#45;&gt;Checkbox  -->
<g id="edge6" class="edge">
<title>CheckboxModule&#45;&gt;Checkbox </title>
<path fill="none" stroke="#000000" stroke-dasharray="5,2" d="M306,-187.1061C306,-187.1061 306,-205.991 306,-205.991"/>
<polygon fill="#000000" stroke="#000000" points="302.5001,-205.9909 306,-215.991 309.5001,-205.991 302.5001,-205.9909"/>
</g>
<!-- Input -->
<g id="node10" class="node">
<title>Input</title>
<polygon fill="#ffffb3" stroke="#000000" points="460,-122 406,-122 406,-86 460,-86 460,-122"/>
<text text-anchor="middle" x="433" y="-99.8" font-family="Times,serif" font-size="14.00" fill="#000000">Input</text>
</g>
<!-- InputModule -->
<g id="node11" class="node">
<title>InputModule</title>
<polygon fill="#8dd3c7" stroke="#000000" points="477.6011,-187 474.6011,-191 453.6011,-191 450.6011,-187 388.3989,-187 388.3989,-151 477.6011,-151 477.6011,-187"/>
<text text-anchor="middle" x="433" y="-164.8" font-family="Times,serif" font-size="14.00" fill="#000000">InputModule</text>
</g>
<!-- Input&#45;&gt;InputModule -->
<g id="edge7" class="edge">
<title>Input&#45;&gt;InputModule</title>
<path fill="none" stroke="#000000" d="M433,-122.1061C433,-122.1061 433,-140.991 433,-140.991"/>
<polygon fill="#000000" stroke="#000000" points="429.5001,-140.9909 433,-150.991 436.5001,-140.991 429.5001,-140.9909"/>
</g>
<!-- Input  -->
<g id="node12" class="node">
<title>Input </title>
<polygon fill="#fb8072" stroke="#000000" points="460,-252 406,-252 406,-216 460,-216 460,-252"/>
<text text-anchor="middle" x="433" y="-229.8" font-family="Times,serif" font-size="14.00" fill="#000000">Input </text>
</g>
<!-- InputModule&#45;&gt;Input  -->
<g id="edge8" class="edge">
<title>InputModule&#45;&gt;Input </title>
<path fill="none" stroke="#000000" stroke-dasharray="5,2" d="M433,-187.1061C433,-187.1061 433,-205.991 433,-205.991"/>
<polygon fill="#000000" stroke="#000000" points="429.5001,-205.9909 433,-215.991 436.5001,-205.991 429.5001,-205.9909"/>
</g>
<!-- List -->
<g id="node13" class="node">
<title>List</title>
<polygon fill="#ffffb3" stroke="#000000" points="646,-122 592,-122 592,-86 646,-86 646,-122"/>
<text text-anchor="middle" x="619" y="-99.8" font-family="Times,serif" font-size="14.00" fill="#000000">List</text>
</g>
<!-- ListModule -->
<g id="node15" class="node">
<title>ListModule</title>
<polygon fill="#8dd3c7" stroke="#000000" points="619.8289,-187 616.8289,-191 595.8289,-191 592.8289,-187 538.1711,-187 538.1711,-151 619.8289,-151 619.8289,-187"/>
<text text-anchor="middle" x="579" y="-164.8" font-family="Times,serif" font-size="14.00" fill="#000000">ListModule</text>
</g>
<!-- List&#45;&gt;ListModule -->
<g id="edge9" class="edge">
<title>List&#45;&gt;ListModule</title>
<path fill="none" stroke="#000000" d="M605.8321,-122.1061C605.8321,-122.1061 605.8321,-140.991 605.8321,-140.991"/>
<polygon fill="#000000" stroke="#000000" points="602.3321,-140.9909 605.8321,-150.991 609.3321,-140.991 602.3321,-140.9909"/>
</g>
<!-- ListItem -->
<g id="node14" class="node">
<title>ListItem</title>
<polygon fill="#ffffb3" stroke="#000000" points="573.9363,-122 510.0637,-122 510.0637,-86 573.9363,-86 573.9363,-122"/>
<text text-anchor="middle" x="542" y="-99.8" font-family="Times,serif" font-size="14.00" fill="#000000">ListItem</text>
</g>
<!-- ListItem&#45;&gt;ListModule -->
<g id="edge10" class="edge">
<title>ListItem&#45;&gt;ListModule</title>
<path fill="none" stroke="#000000" d="M556.0267,-122.1061C556.0267,-122.1061 556.0267,-140.991 556.0267,-140.991"/>
<polygon fill="#000000" stroke="#000000" points="552.5267,-140.9909 556.0267,-150.991 559.5267,-140.991 552.5267,-140.9909"/>
</g>
<!-- List  -->
<g id="node16" class="node">
<title>List </title>
<polygon fill="#fb8072" stroke="#000000" points="648,-252 594,-252 594,-216 648,-216 648,-252"/>
<text text-anchor="middle" x="621" y="-229.8" font-family="Times,serif" font-size="14.00" fill="#000000">List </text>
</g>
<!-- ListModule&#45;&gt;List  -->
<g id="edge11" class="edge">
<title>ListModule&#45;&gt;List </title>
<path fill="none" stroke="#000000" stroke-dasharray="5,2" d="M606.8321,-187.1061C606.8321,-187.1061 606.8321,-205.991 606.8321,-205.991"/>
<polygon fill="#000000" stroke="#000000" points="603.3321,-205.9909 606.8321,-215.991 610.3321,-205.991 603.3321,-205.9909"/>
</g>
<!-- ListItem  -->
<g id="node17" class="node">
<title>ListItem </title>
<polygon fill="#fb8072" stroke="#000000" points="576.4348,-252 509.5652,-252 509.5652,-216 576.4348,-216 576.4348,-252"/>
<text text-anchor="middle" x="543" y="-229.8" font-family="Times,serif" font-size="14.00" fill="#000000">ListItem </text>
</g>
<!-- ListModule&#45;&gt;ListItem  -->
<g id="edge12" class="edge">
<title>ListModule&#45;&gt;ListItem </title>
<path fill="none" stroke="#000000" stroke-dasharray="5,2" d="M557.4017,-187.1061C557.4017,-187.1061 557.4017,-205.991 557.4017,-205.991"/>
<polygon fill="#000000" stroke="#000000" points="553.9017,-205.9909 557.4017,-215.991 560.9017,-205.991 553.9017,-205.9909"/>
</g>
<!-- Select -->
<g id="node18" class="node">
<title>Select</title>
<polygon fill="#ffffb3" stroke="#000000" points="837,-122 783,-122 783,-86 837,-86 837,-122"/>
<text text-anchor="middle" x="810" y="-99.8" font-family="Times,serif" font-size="14.00" fill="#000000">Select</text>
</g>
<!-- SelectModule -->
<g id="node20" class="node">
<title>SelectModule</title>
<polygon fill="#8dd3c7" stroke="#000000" points="810.7577,-187 807.7577,-191 786.7577,-191 783.7577,-187 717.2423,-187 717.2423,-151 810.7577,-151 810.7577,-187"/>
<text text-anchor="middle" x="764" y="-164.8" font-family="Times,serif" font-size="14.00" fill="#000000">SelectModule</text>
</g>
<!-- Select&#45;&gt;SelectModule -->
<g id="edge13" class="edge">
<title>Select&#45;&gt;SelectModule</title>
<path fill="none" stroke="#000000" d="M796.9394,-122.1061C796.9394,-122.1061 796.9394,-140.991 796.9394,-140.991"/>
<polygon fill="#000000" stroke="#000000" points="793.4394,-140.9909 796.9394,-150.991 800.4394,-140.991 793.4394,-140.9909"/>
</g>
<!-- SelectItem -->
<g id="node19" class="node">
<title>SelectItem</title>
<polygon fill="#ffffb3" stroke="#000000" points="764.8641,-122 689.1359,-122 689.1359,-86 764.8641,-86 764.8641,-122"/>
<text text-anchor="middle" x="727" y="-99.8" font-family="Times,serif" font-size="14.00" fill="#000000">SelectItem</text>
</g>
<!-- SelectItem&#45;&gt;SelectModule -->
<g id="edge14" class="edge">
<title>SelectItem&#45;&gt;SelectModule</title>
<path fill="none" stroke="#000000" d="M741.0267,-122.1061C741.0267,-122.1061 741.0267,-140.991 741.0267,-140.991"/>
<polygon fill="#000000" stroke="#000000" points="737.5267,-140.9909 741.0267,-150.991 744.5267,-140.991 737.5267,-140.9909"/>
</g>
<!-- Select  -->
<g id="node21" class="node">
<title>Select </title>
<polygon fill="#fb8072" stroke="#000000" points="840,-252 786,-252 786,-216 840,-216 840,-252"/>
<text text-anchor="middle" x="813" y="-229.8" font-family="Times,serif" font-size="14.00" fill="#000000">Select </text>
</g>
<!-- SelectModule&#45;&gt;Select  -->
<g id="edge15" class="edge">
<title>SelectModule&#45;&gt;Select </title>
<path fill="none" stroke="#000000" stroke-dasharray="5,2" d="M798.4394,-187.1061C798.4394,-187.1061 798.4394,-205.991 798.4394,-205.991"/>
<polygon fill="#000000" stroke="#000000" points="794.9394,-205.9909 798.4394,-215.991 801.9394,-205.991 794.9394,-205.9909"/>
</g>
<!-- SelectItem  -->
<g id="node22" class="node">
<title>SelectItem </title>
<polygon fill="#fb8072" stroke="#000000" points="767.8648,-252 688.1352,-252 688.1352,-216 767.8648,-216 767.8648,-252"/>
<text text-anchor="middle" x="728" y="-229.8" font-family="Times,serif" font-size="14.00" fill="#000000">SelectItem </text>
</g>
<!-- SelectModule&#45;&gt;SelectItem  -->
<g id="edge16" class="edge">
<title>SelectModule&#45;&gt;SelectItem </title>
<path fill="none" stroke="#000000" stroke-dasharray="5,2" d="M742.4017,-187.1061C742.4017,-187.1061 742.4017,-205.991 742.4017,-205.991"/>
<polygon fill="#000000" stroke="#000000" points="738.9017,-205.9909 742.4017,-215.991 745.9017,-205.991 738.9017,-205.9909"/>
</g>
<!-- Sidebar -->
<g id="node23" class="node">
<title>Sidebar</title>
<polygon fill="#ffffb3" stroke="#000000" points="952.2635,-122 893.7365,-122 893.7365,-86 952.2635,-86 952.2635,-122"/>
<text text-anchor="middle" x="923" y="-99.8" font-family="Times,serif" font-size="14.00" fill="#000000">Sidebar</text>
</g>
<!-- SidebarModule -->
<g id="node24" class="node">
<title>SidebarModule</title>
<polygon fill="#8dd3c7" stroke="#000000" points="974.3133,-187 971.3133,-191 950.3133,-191 947.3133,-187 871.6867,-187 871.6867,-151 974.3133,-151 974.3133,-187"/>
<text text-anchor="middle" x="923" y="-164.8" font-family="Times,serif" font-size="14.00" fill="#000000">SidebarModule</text>
</g>
<!-- Sidebar&#45;&gt;SidebarModule -->
<g id="edge17" class="edge">
<title>Sidebar&#45;&gt;SidebarModule</title>
<path fill="none" stroke="#000000" d="M923,-122.1061C923,-122.1061 923,-140.991 923,-140.991"/>
<polygon fill="#000000" stroke="#000000" points="919.5001,-140.9909 923,-150.991 926.5001,-140.991 919.5001,-140.9909"/>
</g>
<!-- Sidebar  -->
<g id="node25" class="node">
<title>Sidebar </title>
<polygon fill="#fb8072" stroke="#000000" points="954.2636,-252 891.7364,-252 891.7364,-216 954.2636,-216 954.2636,-252"/>
<text text-anchor="middle" x="923" y="-229.8" font-family="Times,serif" font-size="14.00" fill="#000000">Sidebar </text>
</g>
<!-- SidebarModule&#45;&gt;Sidebar  -->
<g id="edge18" class="edge">
<title>SidebarModule&#45;&gt;Sidebar </title>
<path fill="none" stroke="#000000" stroke-dasharray="5,2" d="M923,-187.1061C923,-187.1061 923,-205.991 923,-205.991"/>
<polygon fill="#000000" stroke="#000000" points="919.5001,-205.9909 923,-215.991 926.5001,-205.991 919.5001,-205.9909"/>
</g>
<!-- Slider -->
<g id="node26" class="node">
<title>Slider</title>
<polygon fill="#ffffb3" stroke="#000000" points="1071,-122 1017,-122 1017,-86 1071,-86 1071,-122"/>
<text text-anchor="middle" x="1044" y="-99.8" font-family="Times,serif" font-size="14.00" fill="#000000">Slider</text>
</g>
<!-- SliderModule -->
<g id="node27" class="node">
<title>SliderModule</title>
<polygon fill="#8dd3c7" stroke="#000000" points="1090.4888,-187 1087.4888,-191 1066.4888,-191 1063.4888,-187 997.5112,-187 997.5112,-151 1090.4888,-151 1090.4888,-187"/>
<text text-anchor="middle" x="1044" y="-164.8" font-family="Times,serif" font-size="14.00" fill="#000000">SliderModule</text>
</g>
<!-- Slider&#45;&gt;SliderModule -->
<g id="edge19" class="edge">
<title>Slider&#45;&gt;SliderModule</title>
<path fill="none" stroke="#000000" d="M1044,-122.1061C1044,-122.1061 1044,-140.991 1044,-140.991"/>
<polygon fill="#000000" stroke="#000000" points="1040.5001,-140.9909 1044,-150.991 1047.5001,-140.991 1040.5001,-140.9909"/>
</g>
<!-- Slider  -->
<g id="node28" class="node">
<title>Slider </title>
<polygon fill="#fb8072" stroke="#000000" points="1071,-252 1017,-252 1017,-216 1071,-216 1071,-252"/>
<text text-anchor="middle" x="1044" y="-229.8" font-family="Times,serif" font-size="14.00" fill="#000000">Slider </text>
</g>
<!-- SliderModule&#45;&gt;Slider  -->
<g id="edge20" class="edge">
<title>SliderModule&#45;&gt;Slider </title>
<path fill="none" stroke="#000000" stroke-dasharray="5,2" d="M1044,-187.1061C1044,-187.1061 1044,-205.991 1044,-205.991"/>
<polygon fill="#000000" stroke="#000000" points="1040.5001,-205.9909 1044,-215.991 1047.5001,-205.991 1040.5001,-205.9909"/>
</g>
<!-- Toolbar -->
<g id="node29" class="node">
<title>Toolbar</title>
<polygon fill="#ffffb3" stroke="#000000" points="1196.3192,-122 1135.6808,-122 1135.6808,-86 1196.3192,-86 1196.3192,-122"/>
<text text-anchor="middle" x="1166" y="-99.8" font-family="Times,serif" font-size="14.00" fill="#000000">Toolbar</text>
</g>
<!-- ToolbarModule -->
<g id="node30" class="node">
<title>ToolbarModule</title>
<polygon fill="#8dd3c7" stroke="#000000" points="1217.8683,-187 1214.8683,-191 1193.8683,-191 1190.8683,-187 1114.1317,-187 1114.1317,-151 1217.8683,-151 1217.8683,-187"/>
<text text-anchor="middle" x="1166" y="-164.8" font-family="Times,serif" font-size="14.00" fill="#000000">ToolbarModule</text>
</g>
<!-- Toolbar&#45;&gt;ToolbarModule -->
<g id="edge21" class="edge">
<title>Toolbar&#45;&gt;ToolbarModule</title>
<path fill="none" stroke="#000000" d="M1166,-122.1061C1166,-122.1061 1166,-140.991 1166,-140.991"/>
<polygon fill="#000000" stroke="#000000" points="1162.5001,-140.9909 1166,-150.991 1169.5001,-140.991 1162.5001,-140.9909"/>
</g>
<!-- Toolbar  -->
<g id="node31" class="node">
<title>Toolbar </title>
<polygon fill="#fb8072" stroke="#000000" points="1197.8187,-252 1134.1813,-252 1134.1813,-216 1197.8187,-216 1197.8187,-252"/>
<text text-anchor="middle" x="1166" y="-229.8" font-family="Times,serif" font-size="14.00" fill="#000000">Toolbar </text>
</g>
<!-- ToolbarModule&#45;&gt;Toolbar  -->
<g id="edge22" class="edge">
<title>ToolbarModule&#45;&gt;Toolbar </title>
<path fill="none" stroke="#000000" stroke-dasharray="5,2" d="M1166,-187.1061C1166,-187.1061 1166,-205.991 1166,-205.991"/>
<polygon fill="#000000" stroke="#000000" points="1162.5001,-205.9909 1166,-215.991 1169.5001,-205.991 1162.5001,-205.9909"/>
</g>
</g>
</svg>
