<?xml version="1.0" encoding="UTF-8" standalone="no"?>
<!DOCTYPE svg PUBLIC "-//W3C//DTD SVG 1.1//EN"
 "http://www.w3.org/Graphics/SVG/1.1/DTD/svg11.dtd">
<!-- Generated by graphviz version 2.40.1 (20161225.0304)
 -->
<!-- Title: dependencies Pages: 1 -->
<svg width="504pt" height="284pt"
 viewBox="0.00 0.00 504.00 284.00" xmlns="http://www.w3.org/2000/svg" xmlns:xlink="http://www.w3.org/1999/xlink">
<g id="graph0" class="graph" transform="scale(1 1) rotate(0) translate(4 280)">
<title>dependencies</title>
<polygon fill="#ffffff" stroke="transparent" points="-4,4 -4,-280 500,-280 500,4 -4,4"/>
<text text-anchor="start" x="227.0091" y="-42.4" font-family="sans-serif" font-weight="bold" font-size="14.00" fill="#000000">Legend</text>
<polygon fill="#ffffb3" stroke="transparent" points="14,-10 14,-30 34,-30 34,-10 14,-10"/>
<text text-anchor="start" x="37.629" y="-15.4" font-family="sans-serif" font-size="14.00" fill="#000000"> &#160;Declarations</text>
<polygon fill="#8dd3c7" stroke="transparent" points="127,-10 127,-30 147,-30 147,-10 127,-10"/>
<text text-anchor="start" x="150.7251" y="-15.4" font-family="sans-serif" font-size="14.00" fill="#000000"> &#160;Module</text>
<polygon fill="#80b1d3" stroke="transparent" points="213,-10 213,-30 233,-30 233,-10 213,-10"/>
<text text-anchor="start" x="236.7812" y="-15.4" font-family="sans-serif" font-size="14.00" fill="#000000"> &#160;Bootstrap</text>
<polygon fill="#fdb462" stroke="transparent" points="310,-10 310,-30 330,-30 330,-10 310,-10"/>
<text text-anchor="start" x="333.6732" y="-15.4" font-family="sans-serif" font-size="14.00" fill="#000000"> &#160;Providers</text>
<polygon fill="#fb8072" stroke="transparent" points="406,-10 406,-30 426,-30 426,-10 406,-10"/>
<text text-anchor="start" x="429.7258" y="-15.4" font-family="sans-serif" font-size="14.00" fill="#000000"> &#160;Exports</text>
<g id="clust1" class="cluster">
<title>cluster_ListModule</title>
<polygon fill="none" stroke="#000000" stroke-dasharray="1,5" points="163,-70 163,-268 333,-268 333,-70 163,-70"/>
</g>
<g id="clust2" class="cluster">
<title>cluster_ListModule_declarations</title>
<polygon fill="none" stroke="#000000" points="171,-78 171,-130 323,-130 323,-78 171,-78"/>
</g>
<g id="clust6" class="cluster">
<title>cluster_ListModule_exports</title>
<polygon fill="none" stroke="#000000" points="171,-208 171,-260 325,-260 325,-208 171,-208"/>
</g>
<!-- List -->
<g id="node1" class="node">
<title>List</title>
<polygon fill="#ffffb3" stroke="#000000" points="315,-122 261,-122 261,-86 315,-86 315,-122"/>
<text text-anchor="middle" x="288" y="-99.8" font-family="Times,serif" font-size="14.00" fill="#000000">List</text>
</g>
<!-- ListModule -->
<g id="node3" class="node">
<title>ListModule</title>
<polygon fill="#8dd3c7" stroke="#000000" points="288.8289,-187 285.8289,-191 264.8289,-191 261.8289,-187 207.1711,-187 207.1711,-151 288.8289,-151 288.8289,-187"/>
<text text-anchor="middle" x="248" y="-164.8" font-family="Times,serif" font-size="14.00" fill="#000000">ListModule</text>
</g>
<!-- List&#45;&gt;ListModule -->
<g id="edge1" class="edge">
<title>List&#45;&gt;ListModule</title>
<path fill="none" stroke="#000000" d="M274.8321,-122.1061C274.8321,-122.1061 274.8321,-140.991 274.8321,-140.991"/>
<polygon fill="#000000" stroke="#000000" points="271.3321,-140.9909 274.8321,-150.991 278.3321,-140.991 271.3321,-140.9909"/>
</g>
<!-- ListItem -->
<g id="node2" class="node">
<title>ListItem</title>
<polygon fill="#ffffb3" stroke="#000000" points="242.9363,-122 179.0637,-122 179.0637,-86 242.9363,-86 242.9363,-122"/>
<text text-anchor="middle" x="211" y="-99.8" font-family="Times,serif" font-size="14.00" fill="#000000">ListItem</text>
</g>
<!-- ListItem&#45;&gt;ListModule -->
<g id="edge2" class="edge">
<title>ListItem&#45;&gt;ListModule</title>
<path fill="none" stroke="#000000" d="M225.0267,-122.1061C225.0267,-122.1061 225.0267,-140.991 225.0267,-140.991"/>
<polygon fill="#000000" stroke="#000000" points="221.5267,-140.9909 225.0267,-150.991 228.5267,-140.991 221.5267,-140.9909"/>
</g>
<!-- List  -->
<g id="node4" class="node">
<title>List </title>
<polygon fill="#fb8072" stroke="#000000" points="317,-252 263,-252 263,-216 317,-216 317,-252"/>
<text text-anchor="middle" x="290" y="-229.8" font-family="Times,serif" font-size="14.00" fill="#000000">List </text>
</g>
<!-- ListModule&#45;&gt;List  -->
<g id="edge3" class="edge">
<title>ListModule&#45;&gt;List </title>
<path fill="none" stroke="#000000" stroke-dasharray="5,2" d="M275.8321,-187.1061C275.8321,-187.1061 275.8321,-205.991 275.8321,-205.991"/>
<polygon fill="#000000" stroke="#000000" points="272.3321,-205.9909 275.8321,-215.991 279.3321,-205.991 272.3321,-205.9909"/>
</g>
<!-- ListItem  -->
<g id="node5" class="node">
<title>ListItem </title>
<polygon fill="#fb8072" stroke="#000000" points="245.4348,-252 178.5652,-252 178.5652,-216 245.4348,-216 245.4348,-252"/>
<text text-anchor="middle" x="212" y="-229.8" font-family="Times,serif" font-size="14.00" fill="#000000">ListItem </text>
</g>
<!-- ListModule&#45;&gt;ListItem  -->
<g id="edge4" class="edge">
<title>ListModule&#45;&gt;ListItem </title>
<path fill="none" stroke="#000000" stroke-dasharray="5,2" d="M226.4017,-187.1061C226.4017,-187.1061 226.4017,-205.991 226.4017,-205.991"/>
<polygon fill="#000000" stroke="#000000" points="222.9017,-205.9909 226.4017,-215.991 229.9017,-205.991 222.9017,-205.9909"/>
</g>
</g>
</svg>
