<?xml version="1.0" encoding="UTF-8" standalone="no"?>
<!DOCTYPE svg PUBLIC "-//W3C//DTD SVG 1.1//EN"
 "http://www.w3.org/Graphics/SVG/1.1/DTD/svg11.dtd">
<!-- Generated by graphviz version 2.40.1 (20161225.0304)
 -->
<!-- Title: dependencies Pages: 1 -->
<svg width="504pt" height="284pt"
 viewBox="0.00 0.00 504.00 284.00" xmlns="http://www.w3.org/2000/svg" xmlns:xlink="http://www.w3.org/1999/xlink">
<g id="graph0" class="graph" transform="scale(1 1) rotate(0) translate(4 280)">
<title>dependencies</title>
<polygon fill="#ffffff" stroke="transparent" points="-4,4 -4,-280 500,-280 500,4 -4,4"/>
<text text-anchor="start" x="227.0091" y="-42.4" font-family="sans-serif" font-weight="bold" font-size="14.00" fill="#000000">Legend</text>
<polygon fill="#ffffb3" stroke="transparent" points="14,-10 14,-30 34,-30 34,-10 14,-10"/>
<text text-anchor="start" x="37.629" y="-15.4" font-family="sans-serif" font-size="14.00" fill="#000000"> &#160;Declarations</text>
<polygon fill="#8dd3c7" stroke="transparent" points="127,-10 127,-30 147,-30 147,-10 127,-10"/>
<text text-anchor="start" x="150.7251" y="-15.4" font-family="sans-serif" font-size="14.00" fill="#000000"> &#160;Module</text>
<polygon fill="#80b1d3" stroke="transparent" points="213,-10 213,-30 233,-30 233,-10 213,-10"/>
<text text-anchor="start" x="236.7812" y="-15.4" font-family="sans-serif" font-size="14.00" fill="#000000"> &#160;Bootstrap</text>
<polygon fill="#fdb462" stroke="transparent" points="310,-10 310,-30 330,-30 330,-10 310,-10"/>
<text text-anchor="start" x="333.6732" y="-15.4" font-family="sans-serif" font-size="14.00" fill="#000000"> &#160;Providers</text>
<polygon fill="#fb8072" stroke="transparent" points="406,-10 406,-30 426,-30 426,-10 406,-10"/>
<text text-anchor="start" x="429.7258" y="-15.4" font-family="sans-serif" font-size="14.00" fill="#000000"> &#160;Exports</text>
<g id="clust1" class="cluster">
<title>cluster_SelectModule</title>
<polygon fill="none" stroke="#000000" stroke-dasharray="1,5" points="156,-70 156,-268 340,-268 340,-70 156,-70"/>
</g>
<g id="clust2" class="cluster">
<title>cluster_SelectModule_declarations</title>
<polygon fill="none" stroke="#000000" points="165,-78 165,-130 329,-130 329,-78 165,-78"/>
</g>
<g id="clust6" class="cluster">
<title>cluster_SelectModule_exports</title>
<polygon fill="none" stroke="#000000" points="164,-208 164,-260 332,-260 332,-208 164,-208"/>
</g>
<!-- Select -->
<g id="node1" class="node">
<title>Select</title>
<polygon fill="#ffffb3" stroke="#000000" points="321,-122 267,-122 267,-86 321,-86 321,-122"/>
<text text-anchor="middle" x="294" y="-99.8" font-family="Times,serif" font-size="14.00" fill="#000000">Select</text>
</g>
<!-- SelectModule -->
<g id="node3" class="node">
<title>SelectModule</title>
<polygon fill="#8dd3c7" stroke="#000000" points="294.7577,-187 291.7577,-191 270.7577,-191 267.7577,-187 201.2423,-187 201.2423,-151 294.7577,-151 294.7577,-187"/>
<text text-anchor="middle" x="248" y="-164.8" font-family="Times,serif" font-size="14.00" fill="#000000">SelectModule</text>
</g>
<!-- Select&#45;&gt;SelectModule -->
<g id="edge1" class="edge">
<title>Select&#45;&gt;SelectModule</title>
<path fill="none" stroke="#000000" d="M280.9394,-122.1061C280.9394,-122.1061 280.9394,-140.991 280.9394,-140.991"/>
<polygon fill="#000000" stroke="#000000" points="277.4394,-140.9909 280.9394,-150.991 284.4394,-140.991 277.4394,-140.9909"/>
</g>
<!-- SelectItem -->
<g id="node2" class="node">
<title>SelectItem</title>
<polygon fill="#ffffb3" stroke="#000000" points="248.8641,-122 173.1359,-122 173.1359,-86 248.8641,-86 248.8641,-122"/>
<text text-anchor="middle" x="211" y="-99.8" font-family="Times,serif" font-size="14.00" fill="#000000">SelectItem</text>
</g>
<!-- SelectItem&#45;&gt;SelectModule -->
<g id="edge2" class="edge">
<title>SelectItem&#45;&gt;SelectModule</title>
<path fill="none" stroke="#000000" d="M225.0267,-122.1061C225.0267,-122.1061 225.0267,-140.991 225.0267,-140.991"/>
<polygon fill="#000000" stroke="#000000" points="221.5267,-140.9909 225.0267,-150.991 228.5267,-140.991 221.5267,-140.9909"/>
</g>
<!-- Select  -->
<g id="node4" class="node">
<title>Select </title>
<polygon fill="#fb8072" stroke="#000000" points="324,-252 270,-252 270,-216 324,-216 324,-252"/>
<text text-anchor="middle" x="297" y="-229.8" font-family="Times,serif" font-size="14.00" fill="#000000">Select </text>
</g>
<!-- SelectModule&#45;&gt;Select  -->
<g id="edge3" class="edge">
<title>SelectModule&#45;&gt;Select </title>
<path fill="none" stroke="#000000" stroke-dasharray="5,2" d="M282.4394,-187.1061C282.4394,-187.1061 282.4394,-205.991 282.4394,-205.991"/>
<polygon fill="#000000" stroke="#000000" points="278.9394,-205.9909 282.4394,-215.991 285.9394,-205.991 278.9394,-205.9909"/>
</g>
<!-- SelectItem  -->
<g id="node5" class="node">
<title>SelectItem </title>
<polygon fill="#fb8072" stroke="#000000" points="251.8648,-252 172.1352,-252 172.1352,-216 251.8648,-216 251.8648,-252"/>
<text text-anchor="middle" x="212" y="-229.8" font-family="Times,serif" font-size="14.00" fill="#000000">SelectItem </text>
</g>
<!-- SelectModule&#45;&gt;SelectItem  -->
<g id="edge4" class="edge">
<title>SelectModule&#45;&gt;SelectItem </title>
<path fill="none" stroke="#000000" stroke-dasharray="5,2" d="M226.4017,-187.1061C226.4017,-187.1061 226.4017,-205.991 226.4017,-205.991"/>
<polygon fill="#000000" stroke="#000000" points="222.9017,-205.9909 226.4017,-215.991 229.9017,-205.991 222.9017,-205.9909"/>
</g>
</g>
</svg>
